# xmcd
#
# Track frame offsets:
#	150
#	13795
#	24950
#	35798
#	47913
#	61033
#	74284
#	86857
#	97577
#	109280
#	122618
#	133991
#
# Disc length: 1916 seconds
#
# Revision: 0
# Processed by: cddbd v1.5.2PL0 Copyright (c) Steve Scherf et al.
# Submitted via: EasyCDDAExtractor 16.0.1.1
#
DISCID=a0077a0c
DTITLE=Webb Pierce - The Wondering Boy
DYEAR=1956
DGENRE=Country
TTITLE0=Wondering
TTITLE1=There Stands he Glass
TTITLE2=That's Me Without You
TTITLE3=Don't Throw Your Life Away
TTITLE4=Love  Love  Love
TTITLE5=If You Where Me (And I Were You)
TTITLE6=Back Street Love Affair
TTITLE7=It's Been So Long
TTITLE8=Slowly
TTITLE9=That Heart Belongs To Me
TTITLE10=Yes I Know Why
TTITLE11=I'm Gonna Fall Out Of Love With You
EXTD=
EXTT0=
EXTT1=
EXTT2=
EXTT3=
EXTT4=
EXTT5=
EXTT6=
EXTT7=
EXTT8=
EXTT9=
EXTT10=
EXTT11=
PLAYORDER=
